<mxfile host="app.diagrams.net" modified="2022-09-11T12:44:41.632Z" agent="5.0 (Windows NT 6.1; Win64; x64) AppleWebKit/537.36 (KHTML, like Gecko) Chrome/105.0.0.0 Safari/537.36" etag="zHoWxALgXdfHQMiKH5Wn" version="20.3.0" type="github">
  <diagram id="C5RBs43oDa-KdzZeNtuy" name="Page-1">
    <mxGraphModel dx="782" dy="470" grid="1" gridSize="10" guides="1" tooltips="1" connect="1" arrows="1" fold="1" page="1" pageScale="1" pageWidth="827" pageHeight="1169" math="0" shadow="0">
      <root>
        <mxCell id="WIyWlLk6GJQsqaUBKTNV-0" />
        <mxCell id="WIyWlLk6GJQsqaUBKTNV-1" parent="WIyWlLk6GJQsqaUBKTNV-0" />
        <mxCell id="jDneJU6gU1Lfz4TUf1gU-5" style="edgeStyle=orthogonalEdgeStyle;rounded=0;orthogonalLoop=1;jettySize=auto;html=1;fontSize=12;" parent="WIyWlLk6GJQsqaUBKTNV-1" source="WIyWlLk6GJQsqaUBKTNV-3" target="jDneJU6gU1Lfz4TUf1gU-2" edge="1">
          <mxGeometry relative="1" as="geometry" />
        </mxCell>
        <mxCell id="WIyWlLk6GJQsqaUBKTNV-3" value="Input from Harsha/MD" style="rounded=1;whiteSpace=wrap;html=1;fontSize=12;glass=0;strokeWidth=1;shadow=0;" parent="WIyWlLk6GJQsqaUBKTNV-1" vertex="1">
          <mxGeometry x="339" y="130" width="120" height="40" as="geometry" />
        </mxCell>
        <mxCell id="2XbQJNH8ckqrxTOljicF-5" style="edgeStyle=orthogonalEdgeStyle;rounded=0;orthogonalLoop=1;jettySize=auto;html=1;" edge="1" parent="WIyWlLk6GJQsqaUBKTNV-1" source="jDneJU6gU1Lfz4TUf1gU-0" target="2XbQJNH8ckqrxTOljicF-0">
          <mxGeometry relative="1" as="geometry" />
        </mxCell>
        <mxCell id="2XbQJNH8ckqrxTOljicF-6" style="edgeStyle=orthogonalEdgeStyle;rounded=0;orthogonalLoop=1;jettySize=auto;html=1;entryX=0.5;entryY=0;entryDx=0;entryDy=0;" edge="1" parent="WIyWlLk6GJQsqaUBKTNV-1" source="jDneJU6gU1Lfz4TUf1gU-0" target="2XbQJNH8ckqrxTOljicF-1">
          <mxGeometry relative="1" as="geometry" />
        </mxCell>
        <mxCell id="jDneJU6gU1Lfz4TUf1gU-0" value="&lt;font style=&quot;font-size: 24px;&quot;&gt;Customized machine&lt;/font&gt;" style="text;html=1;strokeColor=none;fillColor=none;align=center;verticalAlign=middle;whiteSpace=wrap;rounded=0;" parent="WIyWlLk6GJQsqaUBKTNV-1" vertex="1">
          <mxGeometry x="249" width="300" height="30" as="geometry" />
        </mxCell>
        <mxCell id="jDneJU6gU1Lfz4TUf1gU-4" style="edgeStyle=orthogonalEdgeStyle;rounded=0;orthogonalLoop=1;jettySize=auto;html=1;entryX=0.5;entryY=0;entryDx=0;entryDy=0;fontSize=12;" parent="WIyWlLk6GJQsqaUBKTNV-1" source="jDneJU6gU1Lfz4TUf1gU-2" target="jDneJU6gU1Lfz4TUf1gU-3" edge="1">
          <mxGeometry relative="1" as="geometry" />
        </mxCell>
        <mxCell id="jDneJU6gU1Lfz4TUf1gU-2" value="&lt;span style=&quot;font-size: 12px;&quot;&gt;Fill customized machine details input form&lt;/span&gt;" style="rounded=1;whiteSpace=wrap;html=1;fontSize=24;" parent="WIyWlLk6GJQsqaUBKTNV-1" vertex="1">
          <mxGeometry x="302" y="190" width="194" height="50" as="geometry" />
        </mxCell>
        <mxCell id="jDneJU6gU1Lfz4TUf1gU-7" style="edgeStyle=orthogonalEdgeStyle;rounded=0;orthogonalLoop=1;jettySize=auto;html=1;fontSize=12;" parent="WIyWlLk6GJQsqaUBKTNV-1" source="jDneJU6gU1Lfz4TUf1gU-3" target="jDneJU6gU1Lfz4TUf1gU-6" edge="1">
          <mxGeometry relative="1" as="geometry" />
        </mxCell>
        <mxCell id="jDneJU6gU1Lfz4TUf1gU-3" value="Prepare 2D layout/ Sketches/Concept" style="rounded=1;whiteSpace=wrap;html=1;fontSize=12;" parent="WIyWlLk6GJQsqaUBKTNV-1" vertex="1">
          <mxGeometry x="337" y="250" width="120" height="60" as="geometry" />
        </mxCell>
        <mxCell id="jDneJU6gU1Lfz4TUf1gU-8" style="edgeStyle=orthogonalEdgeStyle;rounded=0;orthogonalLoop=1;jettySize=auto;html=1;fontSize=12;entryX=1;entryY=0.5;entryDx=0;entryDy=0;" parent="WIyWlLk6GJQsqaUBKTNV-1" source="jDneJU6gU1Lfz4TUf1gU-6" target="jDneJU6gU1Lfz4TUf1gU-3" edge="1">
          <mxGeometry relative="1" as="geometry">
            <mxPoint x="607" y="210" as="targetPoint" />
            <Array as="points">
              <mxPoint x="517" y="370" />
              <mxPoint x="517" y="280" />
            </Array>
          </mxGeometry>
        </mxCell>
        <mxCell id="jDneJU6gU1Lfz4TUf1gU-34" style="edgeStyle=orthogonalEdgeStyle;rounded=0;orthogonalLoop=1;jettySize=auto;html=1;entryX=0.5;entryY=0;entryDx=0;entryDy=0;fontSize=12;" parent="WIyWlLk6GJQsqaUBKTNV-1" source="jDneJU6gU1Lfz4TUf1gU-6" target="jDneJU6gU1Lfz4TUf1gU-13" edge="1">
          <mxGeometry relative="1" as="geometry" />
        </mxCell>
        <mxCell id="jDneJU6gU1Lfz4TUf1gU-6" value="Approval from MD/Harsha" style="rounded=1;whiteSpace=wrap;html=1;fontSize=12;" parent="WIyWlLk6GJQsqaUBKTNV-1" vertex="1">
          <mxGeometry x="337" y="330" width="120" height="60" as="geometry" />
        </mxCell>
        <mxCell id="jDneJU6gU1Lfz4TUf1gU-9" value="No" style="text;html=1;strokeColor=none;fillColor=none;align=center;verticalAlign=middle;whiteSpace=wrap;rounded=0;fontSize=12;" parent="WIyWlLk6GJQsqaUBKTNV-1" vertex="1">
          <mxGeometry x="457" y="345" width="60" height="30" as="geometry" />
        </mxCell>
        <mxCell id="jDneJU6gU1Lfz4TUf1gU-11" value="Yes" style="text;html=1;strokeColor=none;fillColor=none;align=center;verticalAlign=middle;whiteSpace=wrap;rounded=0;fontSize=12;" parent="WIyWlLk6GJQsqaUBKTNV-1" vertex="1">
          <mxGeometry x="387" y="390" width="60" height="30" as="geometry" />
        </mxCell>
        <mxCell id="jDneJU6gU1Lfz4TUf1gU-22" style="edgeStyle=orthogonalEdgeStyle;rounded=0;orthogonalLoop=1;jettySize=auto;html=1;fontSize=12;entryX=0.5;entryY=0;entryDx=0;entryDy=0;" parent="WIyWlLk6GJQsqaUBKTNV-1" source="jDneJU6gU1Lfz4TUf1gU-14" target="jDneJU6gU1Lfz4TUf1gU-23" edge="1">
          <mxGeometry relative="1" as="geometry">
            <mxPoint x="397" y="710" as="targetPoint" />
          </mxGeometry>
        </mxCell>
        <mxCell id="jDneJU6gU1Lfz4TUf1gU-36" style="edgeStyle=orthogonalEdgeStyle;rounded=0;orthogonalLoop=1;jettySize=auto;html=1;entryX=1;entryY=0.5;entryDx=0;entryDy=0;fontSize=12;" parent="WIyWlLk6GJQsqaUBKTNV-1" source="jDneJU6gU1Lfz4TUf1gU-14" target="jDneJU6gU1Lfz4TUf1gU-13" edge="1">
          <mxGeometry relative="1" as="geometry">
            <Array as="points">
              <mxPoint x="517" y="490" />
              <mxPoint x="517" y="440" />
              <mxPoint x="456" y="440" />
            </Array>
          </mxGeometry>
        </mxCell>
        <mxCell id="jDneJU6gU1Lfz4TUf1gU-14" value="Get approval" style="rounded=1;whiteSpace=wrap;html=1;fontSize=12;" parent="WIyWlLk6GJQsqaUBKTNV-1" vertex="1">
          <mxGeometry x="337" y="470" width="120" height="40" as="geometry" />
        </mxCell>
        <mxCell id="jDneJU6gU1Lfz4TUf1gU-17" value="No" style="text;html=1;strokeColor=none;fillColor=none;align=center;verticalAlign=middle;whiteSpace=wrap;rounded=0;fontSize=12;" parent="WIyWlLk6GJQsqaUBKTNV-1" vertex="1">
          <mxGeometry x="456" y="460" width="60" height="30" as="geometry" />
        </mxCell>
        <mxCell id="jDneJU6gU1Lfz4TUf1gU-44" style="edgeStyle=orthogonalEdgeStyle;rounded=0;orthogonalLoop=1;jettySize=auto;html=1;fontSize=12;" parent="WIyWlLk6GJQsqaUBKTNV-1" source="jDneJU6gU1Lfz4TUf1gU-23" target="jDneJU6gU1Lfz4TUf1gU-42" edge="1">
          <mxGeometry relative="1" as="geometry" />
        </mxCell>
        <mxCell id="jDneJU6gU1Lfz4TUf1gU-23" value="Modelling" style="rounded=1;whiteSpace=wrap;html=1;fontSize=12;" parent="WIyWlLk6GJQsqaUBKTNV-1" vertex="1">
          <mxGeometry x="337" y="540" width="120" height="40" as="geometry" />
        </mxCell>
        <mxCell id="jDneJU6gU1Lfz4TUf1gU-24" value="Yes" style="text;html=1;strokeColor=none;fillColor=none;align=center;verticalAlign=middle;whiteSpace=wrap;rounded=0;fontSize=12;" parent="WIyWlLk6GJQsqaUBKTNV-1" vertex="1">
          <mxGeometry x="380" y="510" width="60" height="30" as="geometry" />
        </mxCell>
        <mxCell id="jDneJU6gU1Lfz4TUf1gU-39" style="edgeStyle=orthogonalEdgeStyle;rounded=0;orthogonalLoop=1;jettySize=auto;html=1;entryX=0.5;entryY=0;entryDx=0;entryDy=0;fontSize=12;" parent="WIyWlLk6GJQsqaUBKTNV-1" source="jDneJU6gU1Lfz4TUf1gU-25" target="jDneJU6gU1Lfz4TUf1gU-27" edge="1">
          <mxGeometry relative="1" as="geometry" />
        </mxCell>
        <mxCell id="jDneJU6gU1Lfz4TUf1gU-25" value="Major Bom Release&amp;nbsp;" style="rounded=1;whiteSpace=wrap;html=1;fontSize=12;" parent="WIyWlLk6GJQsqaUBKTNV-1" vertex="1">
          <mxGeometry x="337" y="730" width="120" height="30" as="geometry" />
        </mxCell>
        <mxCell id="jDneJU6gU1Lfz4TUf1gU-37" style="edgeStyle=orthogonalEdgeStyle;rounded=0;orthogonalLoop=1;jettySize=auto;html=1;fontSize=12;" parent="WIyWlLk6GJQsqaUBKTNV-1" source="jDneJU6gU1Lfz4TUf1gU-27" target="jDneJU6gU1Lfz4TUf1gU-28" edge="1">
          <mxGeometry relative="1" as="geometry" />
        </mxCell>
        <mxCell id="jDneJU6gU1Lfz4TUf1gU-27" value="Machining drawings&lt;br&gt;*Master copy&lt;br&gt;*PDF for other department reference" style="rounded=1;whiteSpace=wrap;html=1;fontSize=12;" parent="WIyWlLk6GJQsqaUBKTNV-1" vertex="1">
          <mxGeometry x="326.5" y="790" width="140" height="60" as="geometry" />
        </mxCell>
        <mxCell id="jDneJU6gU1Lfz4TUf1gU-49" style="edgeStyle=orthogonalEdgeStyle;rounded=0;orthogonalLoop=1;jettySize=auto;html=1;fontSize=12;" parent="WIyWlLk6GJQsqaUBKTNV-1" source="jDneJU6gU1Lfz4TUf1gU-28" target="jDneJU6gU1Lfz4TUf1gU-30" edge="1">
          <mxGeometry relative="1" as="geometry">
            <mxPoint x="397" y="910" as="targetPoint" />
          </mxGeometry>
        </mxCell>
        <mxCell id="jDneJU6gU1Lfz4TUf1gU-28" value="Nesting release to fabrication or accucut?" style="rounded=1;whiteSpace=wrap;html=1;fontSize=12;" parent="WIyWlLk6GJQsqaUBKTNV-1" vertex="1">
          <mxGeometry x="336" y="880" width="120" height="50" as="geometry" />
        </mxCell>
        <mxCell id="jDneJU6gU1Lfz4TUf1gU-41" style="edgeStyle=orthogonalEdgeStyle;rounded=0;orthogonalLoop=1;jettySize=auto;html=1;fontSize=12;" parent="WIyWlLk6GJQsqaUBKTNV-1" source="jDneJU6gU1Lfz4TUf1gU-30" target="jDneJU6gU1Lfz4TUf1gU-40" edge="1">
          <mxGeometry relative="1" as="geometry" />
        </mxCell>
        <mxCell id="jDneJU6gU1Lfz4TUf1gU-30" value="Bending drawings to Fabrication or accucut?" style="rounded=1;whiteSpace=wrap;html=1;fontSize=12;" parent="WIyWlLk6GJQsqaUBKTNV-1" vertex="1">
          <mxGeometry x="336" y="950" width="120" height="50" as="geometry" />
        </mxCell>
        <mxCell id="jDneJU6gU1Lfz4TUf1gU-35" style="edgeStyle=orthogonalEdgeStyle;rounded=0;orthogonalLoop=1;jettySize=auto;html=1;fontSize=12;" parent="WIyWlLk6GJQsqaUBKTNV-1" source="jDneJU6gU1Lfz4TUf1gU-13" target="jDneJU6gU1Lfz4TUf1gU-14" edge="1">
          <mxGeometry relative="1" as="geometry" />
        </mxCell>
        <mxCell id="jDneJU6gU1Lfz4TUf1gU-13" value="Prepare quote for the project" style="rounded=1;whiteSpace=wrap;html=1;fontSize=12;" parent="WIyWlLk6GJQsqaUBKTNV-1" vertex="1">
          <mxGeometry x="337" y="420" width="119" height="30" as="geometry" />
        </mxCell>
        <mxCell id="jDneJU6gU1Lfz4TUf1gU-58" style="edgeStyle=orthogonalEdgeStyle;rounded=0;orthogonalLoop=1;jettySize=auto;html=1;fontSize=12;" parent="WIyWlLk6GJQsqaUBKTNV-1" source="jDneJU6gU1Lfz4TUf1gU-40" target="jDneJU6gU1Lfz4TUf1gU-57" edge="1">
          <mxGeometry relative="1" as="geometry" />
        </mxCell>
        <mxCell id="jDneJU6gU1Lfz4TUf1gU-40" value="Fabrication drawings&lt;br&gt;*Master copy&lt;br&gt;*xerox of master copy - Reference copy" style="rounded=1;whiteSpace=wrap;html=1;fontSize=12;" parent="WIyWlLk6GJQsqaUBKTNV-1" vertex="1">
          <mxGeometry x="336" y="1020" width="120" height="70" as="geometry" />
        </mxCell>
        <mxCell id="jDneJU6gU1Lfz4TUf1gU-46" style="edgeStyle=orthogonalEdgeStyle;rounded=0;orthogonalLoop=1;jettySize=auto;html=1;entryX=1;entryY=0.5;entryDx=0;entryDy=0;fontSize=12;" parent="WIyWlLk6GJQsqaUBKTNV-1" source="jDneJU6gU1Lfz4TUf1gU-42" target="jDneJU6gU1Lfz4TUf1gU-23" edge="1">
          <mxGeometry relative="1" as="geometry">
            <Array as="points">
              <mxPoint x="517" y="620" />
              <mxPoint x="517" y="560" />
            </Array>
          </mxGeometry>
        </mxCell>
        <mxCell id="jDneJU6gU1Lfz4TUf1gU-55" style="edgeStyle=orthogonalEdgeStyle;rounded=0;orthogonalLoop=1;jettySize=auto;html=1;fontSize=12;" parent="WIyWlLk6GJQsqaUBKTNV-1" source="jDneJU6gU1Lfz4TUf1gU-42" target="jDneJU6gU1Lfz4TUf1gU-54" edge="1">
          <mxGeometry relative="1" as="geometry" />
        </mxCell>
        <mxCell id="jDneJU6gU1Lfz4TUf1gU-42" value="Brain storm/Freeze the model" style="rounded=1;whiteSpace=wrap;html=1;fontSize=12;" parent="WIyWlLk6GJQsqaUBKTNV-1" vertex="1">
          <mxGeometry x="337" y="600" width="120" height="40" as="geometry" />
        </mxCell>
        <mxCell id="jDneJU6gU1Lfz4TUf1gU-45" value="Yes" style="text;html=1;strokeColor=none;fillColor=none;align=center;verticalAlign=middle;whiteSpace=wrap;rounded=0;fontSize=12;" parent="WIyWlLk6GJQsqaUBKTNV-1" vertex="1">
          <mxGeometry x="380" y="640" width="60" height="30" as="geometry" />
        </mxCell>
        <mxCell id="jDneJU6gU1Lfz4TUf1gU-47" value="No" style="text;html=1;strokeColor=none;fillColor=none;align=center;verticalAlign=middle;whiteSpace=wrap;rounded=0;fontSize=12;" parent="WIyWlLk6GJQsqaUBKTNV-1" vertex="1">
          <mxGeometry x="456" y="600" width="60" height="30" as="geometry" />
        </mxCell>
        <mxCell id="jDneJU6gU1Lfz4TUf1gU-56" style="edgeStyle=orthogonalEdgeStyle;rounded=0;orthogonalLoop=1;jettySize=auto;html=1;fontSize=12;" parent="WIyWlLk6GJQsqaUBKTNV-1" source="jDneJU6gU1Lfz4TUf1gU-54" target="jDneJU6gU1Lfz4TUf1gU-25" edge="1">
          <mxGeometry relative="1" as="geometry" />
        </mxCell>
        <mxCell id="jDneJU6gU1Lfz4TUf1gU-54" value="Renaming" style="rounded=1;whiteSpace=wrap;html=1;fontSize=12;" parent="WIyWlLk6GJQsqaUBKTNV-1" vertex="1">
          <mxGeometry x="337" y="670" width="120" height="30" as="geometry" />
        </mxCell>
        <mxCell id="jDneJU6gU1Lfz4TUf1gU-57" value="Minor Bom Release&amp;nbsp;" style="rounded=1;whiteSpace=wrap;html=1;fontSize=12;" parent="WIyWlLk6GJQsqaUBKTNV-1" vertex="1">
          <mxGeometry x="336" y="1110" width="120" height="30" as="geometry" />
        </mxCell>
        <mxCell id="2XbQJNH8ckqrxTOljicF-8" style="edgeStyle=orthogonalEdgeStyle;rounded=0;orthogonalLoop=1;jettySize=auto;html=1;" edge="1" parent="WIyWlLk6GJQsqaUBKTNV-1" source="2XbQJNH8ckqrxTOljicF-0" target="2XbQJNH8ckqrxTOljicF-7">
          <mxGeometry relative="1" as="geometry" />
        </mxCell>
        <mxCell id="2XbQJNH8ckqrxTOljicF-0" value="Unmodified assemblies" style="rounded=1;whiteSpace=wrap;html=1;" vertex="1" parent="WIyWlLk6GJQsqaUBKTNV-1">
          <mxGeometry x="120" y="70" width="100" height="30" as="geometry" />
        </mxCell>
        <mxCell id="2XbQJNH8ckqrxTOljicF-2" style="edgeStyle=orthogonalEdgeStyle;rounded=0;orthogonalLoop=1;jettySize=auto;html=1;" edge="1" parent="WIyWlLk6GJQsqaUBKTNV-1" source="2XbQJNH8ckqrxTOljicF-1" target="WIyWlLk6GJQsqaUBKTNV-3">
          <mxGeometry relative="1" as="geometry" />
        </mxCell>
        <mxCell id="2XbQJNH8ckqrxTOljicF-1" value="modified assemblies" style="rounded=1;whiteSpace=wrap;html=1;" vertex="1" parent="WIyWlLk6GJQsqaUBKTNV-1">
          <mxGeometry x="349" y="70" width="100" height="30" as="geometry" />
        </mxCell>
        <mxCell id="2XbQJNH8ckqrxTOljicF-7" value="Nesting release" style="rounded=1;whiteSpace=wrap;html=1;" vertex="1" parent="WIyWlLk6GJQsqaUBKTNV-1">
          <mxGeometry x="110" y="130" width="120" height="30" as="geometry" />
        </mxCell>
      </root>
    </mxGraphModel>
  </diagram>
</mxfile>
